<svg
   width="9.4961405"
   height="16.342817"
   xmlns="http://www.w3.org/2000/svg">
  <g
     transform="matrix(3.7795276,0,0,3.7795276,-180.28978,-219.80067)">
    <g
       transform="matrix(1.7916794,0,0,1.7916794,-39.448415,-47.75494)">
      <path
         fill="#36bbf5"
         stroke="none"
         d="m 49.182349,60.643779 q -0.248515,0.133008 -0.402525,0.406025 l 0.434027,0.077 -0.0315,-0.48303 m 0.332521,0.0105 -0.035,0.47253 0.423526,-0.07351 q -0.15051,-0.262516 -0.388524,-0.399025 z"
         style="stroke-width:0.0700043" />
      <path
         fill="#1884b4"
         stroke="none"
         d="m 48.678318,61.14781 q 0.0315,0.0315 0.077,0.042 l 0.32552,0.056 0.133008,-0.119007 -0.434027,-0.077 q 0.15401,-0.273017 0.402525,-0.406025 l -0.147009,-0.077 q -0.227514,0.150509 -0.378023,0.416526 -0.021,0.0385 -0.014,0.084 0.0035,0.0385 0.028,0.07 0.0035,0.0035 0.007,0.0105 m 0.983561,-0.567035 -0.147009,0.0735 q 0.238014,0.136509 0.388524,0.399025 l -0.423526,0.07351 0.133008,0.119007 0.315019,-0.0525 q 0.0455,-0.0105 0.077,-0.042 0.007,-0.007 0.0105,-0.014 0.021,-0.028 0.028,-0.0665 0.0035,-0.0455 -0.0175,-0.08751 -0.147009,-0.255516 -0.364022,-0.402525 z"
         style="stroke-width:0.0700043" />
      <path
         fill="#78888c"
         stroke="none"
         d="m 49.612876,61.245816 -0.133008,-0.119007 v 0.0105 l -0.0175,0.248516 h -0.231014 l -0.0175,-0.248516 v -0.0105 l -0.133008,0.119007 0.0105,0.150509 q 0.0035,0.0525 0.0455,0.09101 0.0385,0.0385 0.09451,0.0385 h 0.231014 q 0.056,0 0.09801,-0.0385 0.0385,-0.0385 0.042,-0.09101 l 0.0105,-0.150509 m -0.623039,-1.319582 0.0455,0.64054 0.147009,0.077 -0.0525,-0.728046 q 0.0175,-0.455028 0.217013,-0.665041 0.199513,0.210013 0.217014,0.665041 l -0.049,0.738546 0.147009,-0.0735 0.042,-0.654541 q 0,-0.0105 0,-0.014 -0.021,-0.521532 -0.255515,-0.756047 -0.028,-0.0315 -0.063,-0.0385 -0.0385,-0.0105 -0.0735,0 -0.0385,0.007 -0.0665,0.0385 -0.234515,0.234515 -0.255516,0.756047 0,0.007 0,0.014 z"
         style="stroke-width:0.0700043" />
      <path
         fill="#bdd6db"
         stroke="none"
         d="m 49.563873,59.915733 h -0.434027 l 0.0525,0.728046 0.0315,0.48303 v 0.0105 l 0.0175,0.248516 h 0.231014 l 0.0175,-0.248516 v -0.0105 l 0.035,-0.47253 z"
         style="stroke-width:0.0700043" />
      <path
         fill="#a1b6bb"
         stroke="none"
         d="m 49.346859,59.250692 q -0.199512,0.210013 -0.217013,0.665041 h 0.434027 q -0.0175,-0.455028 -0.217014,-0.665041 z"
         style="stroke-width:0.0700043" />
    </g>
  </g>
</svg>

