<svg width="27.953228" height="21.128632" xmlns="http://www.w3.org/2000/svg">
  <g transform="matrix(3.7795276,0,0,3.7795276,-257.33112,-512.76389)">
    <g transform="matrix(0.26458333,0,0,0.26458333,-72.148915,131.04149)">
      <g>
        <g transform="scale(0.26458333)">
          <path fill="#7b7b7b" stroke="none" d="m 2026.5,97.55 q -0.85,0 -1.4,0.55 l -2,2 q -0.6,0.6 -0.6,1.45 v 10 q 0,0.85 0.6,1.4 l 3.4,3.45 v 4.3 l -1.4,1.4 q -0.6,0.6 -0.6,1.45 v 4 q 0,0.3 0.1,0.6 l 2,6 q 0.2,0.65 0.75,1 0.5,0.4 1.15,0.4 h 4 q 0.65,0 1.2,-0.4 0.5,-0.35 0.7,-1 l 2,-6 q 0.1,-0.3 0.1,-0.6 v -4 q 0,-0.85 -0.55,-1.45 l -1.45,-1.4 v -4.3 l 3.45,-3.45 q 0.55,-0.55 0.55,-1.4 v -10 q 0,-0.85 -0.55,-1.45 l -2,-2 q -0.6,-0.55 -1.45,-0.55 h -8 m -2,14 v -10 l 2,-2 h 8 l 2,2 v 10 l -4,4 v 6 l 2,2 v 4 l -2,6 h -4 l -2,-6 v -4 l 2,-2 v -6 z" />
          <path fill="#cbcbcb" stroke="none" d="m 2034.5,123.55 h -8 v 4 l 2,6 h 4 l 2,-6 v -4 m -10,-22 v 10 l 4,4 h 4 l 4,-4 v -10 l -2,-2 h -8 z" />
          <path fill="#aaaaaa" stroke="none" d="m 2028.5,121.55 -2,2 h 8 l -2,-2 v -6 h -4 z" />
        </g>
      </g>
      <g>
        <g transform="scale(0.26458333)">
          <path fill="#7b7b7b" stroke="none" d="m 2077.5,97.55 q -0.85,0 -1.4,0.55 l -2,2 q -0.6,0.6 -0.6,1.45 v 10 q 0,0.85 0.6,1.4 l 3.4,3.45 v 4.3 l -1.4,1.4 q -0.6,0.6 -0.6,1.45 v 4 q 0,0.3 0.1,0.6 l 2,6 q 0.2,0.65 0.75,1 0.5,0.4 1.15,0.4 h 4 q 0.65,0 1.2,-0.4 0.5,-0.35 0.7,-1 l 2,-6 q 0.1,-0.3 0.1,-0.6 v -4 q 0,-0.85 -0.55,-1.45 l -1.45,-1.4 v -4.3 l 3.45,-3.45 q 0.55,-0.55 0.55,-1.4 v -10 q 0,-0.85 -0.55,-1.45 l -2,-2 q -0.6,-0.55 -1.45,-0.55 h -8 m 10,4 v 10 l -4,4 v 6 l 2,2 v 4 l -2,6 h -4 l -2,-6 v -4 l 2,-2 v -6 l -4,-4 v -10 l 2,-2 h 8 z" />
          <path fill="#cbcbcb" stroke="none" d="m 2085.5,123.55 h -8 v 4 l 2,6 h 4 l 2,-6 v -4 m 2,-12 v -10 l -2,-2 h -8 l -2,2 v 10 l 4,4 h 4 z" />
          <path fill="#aaaaaa" stroke="none" d="m 2079.5,121.55 -2,2 h 8 l -2,-2 v -6 h -4 z" />
        </g>
      </g>
      <g>
        <g transform="scale(0.26458333)">
          <path fill="#484848" stroke="none" d="m 2051.5,72.1 v -4 q 0,-0.85 -0.55,-1.45 -0.6,-0.55 -1.45,-0.55 h -17 q -0.85,0 -1.4,0.55 -0.2,0.2 -0.3,0.35 -0.3,0.5 -0.3,1.1 v 4 q 0,0.5 0.25,0.95 l 5.45,10 q 0.25,0.5 0.75,0.75 0.45,0.3 1,0.3 h 7 q 0.6,0 1.1,-0.35 0.45,-0.3 0.75,-0.85 l 4.55,-10 q 0.15,-0.35 0.15,-0.8 m -2,-4 v 4 l -4.55,10 h -7 l -5.45,-10 v -4 z" />
          <path fill="#5b5b5b" stroke="none" d="m 2037.95,82.1 h 7 l 4.55,-10 h -17 z" />
          <path fill="#626262" stroke="none" d="m 2049.5,72.1 v -4 h -17 v 4 z" />
        </g>
      </g>
      <g>
        <g transform="scale(0.26458333)">
          <path fill="#484848" stroke="none" d="m 2060.5,68.1 v 4 q 0,0.5 0.25,0.95 l 5.45,10 q 0.25,0.5 0.75,0.75 0.45,0.3 1,0.3 h 7 q 0.6,0 1.1,-0.35 0.45,-0.3 0.75,-0.85 l 4.55,-10 q 0.15,-0.35 0.15,-0.8 v -4 q 0,-0.85 -0.55,-1.45 -0.6,-0.55 -1.45,-0.55 h -17 q -0.85,0 -1.4,0.55 -0.2,0.2 -0.3,0.35 -0.3,0.5 -0.3,1.1 m 2,4 v -4 h 17 v 4 l -4.55,10 h -7 z" />
          <path fill="#5b5b5b" stroke="none" d="m 2067.95,82.1 h 7 l 4.55,-10 h -17 z" />
          <path fill="#626262" stroke="none" d="m 2062.5,68.1 v 4 h 17 v -4 z" />
        </g>
      </g>
      <g>
        <g transform="scale(0.26458333)">
          <path fill="#ac3939" stroke="none" d="m 2041.1,72.1 -5.05,2.1 q -0.95,0.5 -2.05,0.9 l -13.7,5.95 -10.7,40 18.9,22.3 3.55,-1.4 -6.35,-9.05 8.35,-19.35 6.35,-5.75 6.45,-24.05 -5.75,-11.65 m -8.95,14.6 q 1.3,0.35 0.95,1.65 l -1.75,6.4 q -0.3,1.2 -1.6,0.85 l -6.4,-1.7 q -1.2,-0.35 -0.9,-1.55 l 1.75,-6.4 q 0.35,-1.3 1.55,-0.95 l 6.4,1.7 m -10.95,10.45 q 0.35,-1.25 1.55,-0.9 l 6.4,1.7 q 1.3,0.35 0.95,1.6 l -1.75,6.4 q -0.3,1.25 -1.6,0.9 l -6.4,-1.7 q -1.2,-0.35 -0.9,-1.6 l 1.75,-6.4 m 54.85,-22.95 -5.05,-2.1 -5.75,11.65 6.45,24.05 6.35,5.75 8.35,19.35 -6.35,9.05 3.55,1.4 18.9,-22.3 -10.7,-40 -13.7,-5.95 q -1.1,-0.4 -2.05,-0.9 m 2.95,14.15 q -0.35,-1.3 0.95,-1.65 l 6.4,-1.7 q 1.2,-0.35 1.55,0.95 l 1.75,6.4 q 0.3,1.2 -0.9,1.55 l -6.4,1.7 q -1.3,0.35 -1.6,-0.85 l -1.75,-6.4 m 10.35,7.9 q 1.2,-0.35 1.55,0.9 l 1.75,6.4 q 0.3,1.25 -0.9,1.6 l -6.4,1.7 q -1.3,0.35 -1.6,-0.9 l -1.75,-6.4 q -0.35,-1.25 0.95,-1.6 z" />
          <path fill="#bd3e3e" stroke="none" d="m 2022.75,96.25 q -1.2,-0.35 -1.55,0.9 l -1.75,6.4 q -0.3,1.25 0.9,1.6 l 6.4,1.7 q 1.3,0.35 1.6,-0.9 l 1.75,-6.4 q 0.35,-1.25 -0.95,-1.6 l -6.4,-1.7 m 10.35,-7.9 q 0.35,-1.3 -0.95,-1.65 l -6.4,-1.7 q -1.2,-0.35 -1.55,0.95 l -1.75,6.4 q -0.3,1.2 0.9,1.55 l 6.4,1.7 q 1.3,0.35 1.6,-0.85 l 1.75,-6.4 m 57.8,8.8 q -0.35,-1.25 -1.55,-0.9 l -6.4,1.7 q -1.3,0.35 -0.95,1.6 l 1.75,6.4 q 0.3,1.25 1.6,0.9 l 6.4,-1.7 q 1.2,-0.35 0.9,-1.6 l -1.75,-6.4 M 2079.95,86.7 q -1.3,0.35 -0.95,1.65 l 1.75,6.4 q 0.3,1.2 1.6,0.85 l 6.4,-1.7 q 1.2,-0.35 0.9,-1.55 l -1.75,-6.4 q -0.35,-1.3 -1.55,-0.95 z" />
          <path fill="#e9e9e9" stroke="none" d="m 2041.1,72.1 -0.5,-1 -23.25,6.15 -12.1,45.15 21.4,21.6 1.85,-0.65 -18.9,-22.3 10.7,-40 13.7,-5.95 q 1.1,-0.4 2.05,-0.9 l 5.05,-2.1 m 29.9,0 5.05,2.1 q 0.95,0.5 2.05,0.9 l 13.7,5.95 10.7,40 -18.9,22.3 1.85,0.65 21.4,-21.6 -12.1,-45.15 -23.25,-6.15 z" />
          <path fill="#802b2b" stroke="none" d="m 2042.85,71.2 -1.75,0.9 5.75,11.65 -6.45,24.05 -6.35,5.75 -8.35,19.35 6.35,9.05 -3.55,1.4 1.5,1.5 2.75,-1.05 q 0.6,-0.25 0.95,-0.75 0.35,-0.45 0.3,-1.1 0.05,-0.6 -0.35,-1.2 l -5.7,-8.05 7.75,-17.95 6.05,-5.55 q 0.45,-0.3 0.6,-0.9 l 6.45,-24.05 q 0.2,-0.7 -0.15,-1.4 l -5.8,-11.65 m 20.6,11.65 q -0.35,0.7 -0.15,1.4 l 6.45,24.05 q 0.15,0.6 0.6,0.9 l 6.05,5.55 7.75,17.95 -5.7,8.05 q -0.4,0.6 -0.35,1.2 -0.05,0.65 0.3,1.1 0.35,0.5 0.95,0.75 l 2.75,1.05 1.5,-1.5 -3.55,-1.4 6.35,-9.05 -8.35,-19.35 -6.35,-5.75 -6.45,-24.05 5.75,-11.65 -1.75,-0.9 z" />
          <path fill="#bbbbbb" stroke="none" d="m 2041.1,72.1 1.75,-0.9 -0.45,-1.05 q -0.35,-0.55 -1.05,-0.9 -0.55,-0.25 -1.3,-0.15 l -23.2,6.15 q -0.5,0.2 -0.95,0.6 -0.35,0.35 -0.5,0.85 l -12.1,45.15 q -0.15,0.55 0,1.1 0.2,0.45 0.55,0.8 l 21.4,21.6 q 0.4,0.4 1,0.55 0.55,0.15 1.1,-0.1 l 2.65,-0.95 -1.5,-1.5 -1.85,0.65 -21.4,-21.6 12.1,-45.15 23.25,-6.15 0.5,1 m 67.15,51.65 q 0.35,-0.35 0.55,-0.8 0.15,-0.55 0,-1.1 L 2096.7,76.7 q -0.15,-0.5 -0.5,-0.85 -0.45,-0.4 -0.95,-0.6 l -23.2,-6.15 q -0.75,-0.1 -1.3,0.15 -0.7,0.35 -1.05,0.9 l -0.45,1.05 1.75,0.9 0.5,-1 23.25,6.15 12.1,45.15 -21.4,21.6 -1.85,-0.65 -1.5,1.5 2.65,0.95 q 0.55,0.25 1.1,0.1 0.6,-0.15 1,-0.55 z" />
        </g>
      </g>
      <g>
        <g transform="scale(0.26458333)">
          <path fill="#a3a3a3" stroke="none" d="m 2036.2,90.65 q -0.35,0.7 -0.1,1.4 l 11,37 q 0.15,0.65 0.7,1.05 0.55,0.4 1.2,0.4 h 14 q 0.65,0 1.2,-0.4 0.55,-0.4 0.75,-1.05 l 11,-37 q 0.2,-0.7 -0.15,-1.4 l -7,-15 q -0.25,-0.5 -0.7,-0.85 -0.5,-0.3 -1.1,-0.3 h -22 q -0.6,0 -1.05,0.3 -0.5,0.35 -0.75,0.85 l -7,15 M 2048,76.5 h 16 3 l 7,15 -4,13 -7,24 h -14 l -7,-24 -4,-13 7,-15 z" />
          <path fill="#d9d9d9" stroke="none" d="m 2074,91.5 -7,-15 h -3 l 6,28 4,-13 m -26,-15 h -3 l -7,15 4,13 z" />
          <path fill="#eeeeee" stroke="none" d="m 2064,76.5 h -16 l -6,28 7,24 h 14 l 7,-24 z" />
        </g>
      </g>
      <g>
        <g transform="scale(0.26458333)">
          <path fill="#5d4b6b" stroke="none" d="m 2056,90.25 h -2.75 l -4,6.05 4.25,23 h 2.5 z" />
          <path fill="#4a3c55" stroke="none" d="m 2062.75,96.3 -4,-6.05 H 2056 v 29.05 h 2.5 z" />
        </g>
      </g>
    </g>
  </g>
</svg>
